<?xml version="1.0" encoding="utf-8"?>
<!-- Generator: Adobe Illustrator 17.0.0, SVG Export Plug-In . SVG Version: 6.00 Build 0)  -->
<!DOCTYPE svg PUBLIC "-//W3C//DTD SVG 1.1//EN" "http://www.w3.org/Graphics/SVG/1.1/DTD/svg11.dtd">
<svg version="1.1" id="Logos" xmlns="http://www.w3.org/2000/svg" xmlns:xlink="http://www.w3.org/1999/xlink" x="0px" y="0px"
	 width="575.705px" height="282.568px" viewBox="0 0 575.705 282.568" enable-background="new 0 0 575.705 282.568"
	 xml:space="preserve">
<path id="FAU_x5F_Logo_00000054986581416837337540000006401078742208127884_" fill="#04316A" d="M48.719,66.644l9.744-9.744v176.95
	h-9.744V66.644z M77.95,58.462h116.925v-9.744H68.206v116.925h107.622v-9.744H77.95V58.462z M190.499,136.412H97.438V97.438h79.587
	l9.744-9.744H97.438V77.95h97.437v-9.744H87.693v77.95h93.19L190.499,136.412z M68.206,233.85h9.744v-48.719h9.744v40.538
	l9.744-9.744v-30.794h78.391v-9.744H68.206V233.85z M542.598,48.719v112.053c0,26.074-11.633,48.476-38.78,65.656l-0.219-0.286
	c17.837-14.146,29.256-32.316,29.256-55.789V48.719h-9.744V170.19c0,34.979-28.356,61.224-63.335,61.224
	c-34.978,0-63.334-26.245-63.334-61.224V56.899l-9.744,9.744v103.709c0,40.36,32.718,70.643,73.078,70.643c0.934,0,9.744,0,9.744,0
	c39.743,0,82.822-29.351,82.822-80.08c0-0.048,0-112.196,0-112.196H542.598z M459.776,221.67c29.581,0,53.563-21.908,53.59-51.48h0
	V56.899l-9.744,9.744v94.128c0,18.835-15.269,31.667-34.103,31.667c-18.835,0-34.103-12.832-34.103-31.667l-0.001-112.053h-9.744
	v112.053c0,24.216,19.631,41.411,43.847,41.411c9.902,0,21.921-4.893,30.085-13.503l0.219,0.286
	c-7.655,14.195-21.804,22.96-40.048,22.96c-24.067,0-43.602-17.423-43.841-41.41h-0.005V48.719h-9.744v121.797h0.005
	C406.393,199.922,430.305,221.67,459.776,221.67z M243.257,175.387l-24.64,58.463l9.746-0.001l-0.001,0.001h0.001l12.319-29.231
	h82.554l12.308,29.231h9.744l-16.411-38.975h-84.089l4.106-9.744h85.624l20.513,48.719h9.744l-24.616-58.463H243.257z
	 M257.594,48.719l-71.61,169.858l6.203,8.419l75.151-178.277H257.594z M296.569,48.719l75.058,178.277l6.187-8.419L306.313,48.719
	H296.569z M237.6,165.643l-28.818,68.206h-9.744l73.171-173.562l40.258,95.612h9.744L277.082,48.719h9.744l49.231,116.925H237.6z
	 M281.978,106.63l-20.764,49.27h41.509L281.978,106.63z M241.702,155.899h9.768l25.638-60.835l-4.879-11.588L241.702,155.899z"/>
</svg>
